<mxfile host="app.diagrams.net" agent="Mozilla/5.0 (Windows NT 10.0; Win64; x64) AppleWebKit/537.36 (KHTML, like Gecko) Chrome/134.0.0.0 Safari/537.36 Edg/134.0.0.0" version="26.1.1">
  <diagram name="Página-1" id="3w-K-sI1sfkckhTDJlW1">
    <mxGraphModel dx="1303" dy="1875" grid="1" gridSize="10" guides="1" tooltips="1" connect="1" arrows="1" fold="1" page="1" pageScale="1" pageWidth="827" pageHeight="1169" math="0" shadow="0">
      <root>
        <mxCell id="0" />
        <mxCell id="1" parent="0" />
        <mxCell id="NdpwIMq1EOahP2SCebJp-9" style="edgeStyle=orthogonalEdgeStyle;rounded=0;orthogonalLoop=1;jettySize=auto;html=1;exitX=0.5;exitY=0.5;exitDx=0;exitDy=0;exitPerimeter=0;entryX=0;entryY=0.5;entryDx=0;entryDy=0;" edge="1" parent="1" source="NdpwIMq1EOahP2SCebJp-3" target="NdpwIMq1EOahP2SCebJp-5">
          <mxGeometry relative="1" as="geometry" />
        </mxCell>
        <mxCell id="NdpwIMq1EOahP2SCebJp-10" style="edgeStyle=orthogonalEdgeStyle;rounded=0;orthogonalLoop=1;jettySize=auto;html=1;exitX=0.5;exitY=0.5;exitDx=0;exitDy=0;exitPerimeter=0;entryX=0;entryY=0.5;entryDx=0;entryDy=0;" edge="1" parent="1" source="NdpwIMq1EOahP2SCebJp-3" target="NdpwIMq1EOahP2SCebJp-7">
          <mxGeometry relative="1" as="geometry" />
        </mxCell>
        <mxCell id="NdpwIMq1EOahP2SCebJp-3" value="Usuário" style="shape=umlActor;verticalLabelPosition=bottom;verticalAlign=top;html=1;outlineConnect=0;" vertex="1" parent="1">
          <mxGeometry x="50" y="110" width="50" height="100" as="geometry" />
        </mxCell>
        <mxCell id="NdpwIMq1EOahP2SCebJp-5" value="&lt;font&gt;Acessar o site&lt;/font&gt;" style="rounded=1;whiteSpace=wrap;html=1;fontSize=15;" vertex="1" parent="1">
          <mxGeometry x="300" y="80" width="190" height="60" as="geometry" />
        </mxCell>
        <mxCell id="NdpwIMq1EOahP2SCebJp-7" value="&lt;font&gt;Criar conta&lt;/font&gt;" style="rounded=1;whiteSpace=wrap;html=1;fontSize=15;" vertex="1" parent="1">
          <mxGeometry x="300" y="190" width="190" height="60" as="geometry" />
        </mxCell>
        <mxCell id="NdpwIMq1EOahP2SCebJp-11" value="&lt;font&gt;Sistema de Cadastramento de Usuários&lt;/font&gt;" style="rounded=1;whiteSpace=wrap;html=1;fontSize=15;" vertex="1" parent="1">
          <mxGeometry x="300" y="-70" width="190" height="60" as="geometry" />
        </mxCell>
        <mxCell id="NdpwIMq1EOahP2SCebJp-12" style="edgeStyle=orthogonalEdgeStyle;rounded=0;orthogonalLoop=1;jettySize=auto;html=1;exitX=0.5;exitY=1;exitDx=0;exitDy=0;" edge="1" parent="1" source="NdpwIMq1EOahP2SCebJp-11" target="NdpwIMq1EOahP2SCebJp-11">
          <mxGeometry relative="1" as="geometry" />
        </mxCell>
        <mxCell id="NdpwIMq1EOahP2SCebJp-13" value="Diagrama de Casos de Uso" style="rounded=0;whiteSpace=wrap;html=1;fontSize=15;" vertex="1" parent="1">
          <mxGeometry x="335" width="120" height="60" as="geometry" />
        </mxCell>
      </root>
    </mxGraphModel>
  </diagram>
</mxfile>
